<svg xmlns="http://www.w3.org/2000/svg" width="1300" height="1150" viewBox="0 0 1300 1150"><rect width="1300" height="1150" fill="white"/><defs><marker id="arrow" markerWidth="10" markerHeight="10" refX="9" refY="5" orient="auto"><path d="M0 0L10 5L0 10Z" fill="white" stroke="#334155"/></marker><marker id="open" markerWidth="10" markerHeight="10" refX="9" refY="5" orient="auto"><path d="M0 0L10 5L0 10" fill="none" stroke="#334155"/></marker><marker id="diamond" markerWidth="14" markerHeight="10" refX="0" refY="5" orient="auto"><path d="M0 5L7 0L14 5L7 10Z" fill="#334155"/></marker></defs><text x="40" y="40" font-family="Arial" font-size="25">Level 1 — Forecast (implemented)</text><rect x="55" y="90" width="440" height="110" fill="#eff6ff" stroke="#334155"/><path d="M55 125H495" stroke="#334155"/><text x="67" y="114" font-family="Arial" font-size="16">RevenueForecaster</text><text x="67" y="142" font-family="Arial" font-size="13">forecast(data): ForecastResult</text><rect x="595" y="90" width="440" height="110" fill="#eff6ff" stroke="#334155"/><path d="M595 125H1035" stroke="#334155"/><text x="607" y="114" font-family="Arial" font-size="16">ForecastResult «frozen»</text><text x="607" y="142" font-family="Arial" font-size="13">training; test; test_predictions; future</text><text x="607" y="170" font-family="Arial" font-size="13">model_errors; baseline_errors; baseline_revenue</text><rect x="55" y="300" width="440" height="110" fill="#eff6ff" stroke="#334155"/><path d="M55 335H495" stroke="#334155"/><text x="67" y="324" font-family="Arial" font-size="16">DailyRevenue «frozen»</text><text x="67" y="352" font-family="Arial" font-size="13">day; revenue: Decimal</text><rect x="595" y="300" width="440" height="110" fill="#eff6ff" stroke="#334155"/><path d="M595 335H1035" stroke="#334155"/><text x="607" y="324" font-family="Arial" font-size="16">Prediction «frozen»</text><text x="607" y="352" font-family="Arial" font-size="13">day; revenue: float</text><rect x="55" y="510" width="440" height="110" fill="#eff6ff" stroke="#334155"/><path d="M55 545H495" stroke="#334155"/><text x="67" y="534" font-family="Arial" font-size="16">ErrorMetrics «frozen»</text><text x="67" y="562" font-family="Arial" font-size="13">mae; rmse</text><rect x="595" y="510" width="440" height="110" fill="#eff6ff" stroke="#334155"/><path d="M595 545H1035" stroke="#334155"/><text x="607" y="534" font-family="Arial" font-size="16">SalesDataset</text><text x="607" y="562" font-family="Arial" font-size="13">Input domain model</text><rect x="55" y="720" width="440" height="110" fill="#eff6ff" stroke="#334155"/><path d="M55 755H495" stroke="#334155"/><text x="67" y="744" font-family="Arial" font-size="16">daily_revenue «function»</text><text x="67" y="772" font-family="Arial" font-size="13">Explicit timezone and missing-day policy</text><rect x="595" y="720" width="440" height="110" fill="#eff6ff" stroke="#334155"/><path d="M595 755H1035" stroke="#334155"/><text x="607" y="744" font-family="Arial" font-size="16">LinearRegression «external»</text><text x="607" y="772" font-family="Arial" font-size="13">scikit-learn; lazy import</text><path d="M495 145H545.0V145H595" fill="none" stroke="#334155" stroke-dasharray="5 4" marker-end="url(#open)" /><text x="500.0" y="140.0" font-family="Arial" font-size="11" fill="#334155">1</text><path d="M595 145H545.0V355H495" fill="none" stroke="#334155"   /><text x="500.0" y="245.0" font-family="Arial" font-size="11" fill="#334155">2</text><path d="M1035 155H1072V365H1035" fill="none" stroke="#334155"   /><text x="1076" y="260.0" font-family="Arial" font-size="11" fill="#334155">3</text><path d="M595 145H545.0V565H495" fill="none" stroke="#334155"   /><text x="500.0" y="350.0" font-family="Arial" font-size="11" fill="#334155">4</text><path d="M495 145H545.0V565H595" fill="none" stroke="#334155" stroke-dasharray="5 4" marker-end="url(#open)" /><text x="500.0" y="350.0" font-family="Arial" font-size="11" fill="#334155">5</text><path d="M495 155H550V785H495" fill="none" stroke="#334155" stroke-dasharray="5 4" marker-end="url(#open)" /><text x="554" y="470.0" font-family="Arial" font-size="11" fill="#334155">6</text><path d="M495 145H545.0V775H595" fill="none" stroke="#334155" stroke-dasharray="5 4" marker-end="url(#open)" /><text x="500.0" y="455.0" font-family="Arial" font-size="11" fill="#334155">7</text><text x="40" y="925" font-family="Arial" font-size="13">1. RevenueForecaster → ForecastResult «frozen»: dependency: creates</text><text x="40" y="949" font-family="Arial" font-size="13">2. ForecastResult «frozen» → DailyRevenue «frozen»: association 0..*</text><text x="40" y="973" font-family="Arial" font-size="13">3. ForecastResult «frozen» → Prediction «frozen»: association 0..*</text><text x="40" y="997" font-family="Arial" font-size="13">4. ForecastResult «frozen» → ErrorMetrics «frozen»: association 2</text><text x="40" y="1021" font-family="Arial" font-size="13">5. RevenueForecaster → SalesDataset: dependency</text><text x="40" y="1045" font-family="Arial" font-size="13">6. RevenueForecaster → daily_revenue «function»: dependency</text><text x="40" y="1069" font-family="Arial" font-size="13">7. RevenueForecaster → LinearRegression «external»: dependency</text><text x="40" y="1130"  font-family="Arial" font-size="13">Hollow triangle: inheritance · filled diamond: composition · solid line: association · dashed arrow: dependency</text></svg>